<?xml version="1.0" standalone="no"?>
<!DOCTYPE svg PUBLIC "-//W3C//DTD SVG 20010904//EN"
 "http://www.w3.org/TR/2001/REC-SVG-20010904/DTD/svg10.dtd">
<svg version="1.0" xmlns="http://www.w3.org/2000/svg"
 width="158.000000pt" height="153.000000pt" viewBox="0 0 158.000000 153.000000"
 preserveAspectRatio="xMidYMid meet">

<g transform="translate(0.000000,153.000000) scale(0.100000,-0.100000)"
fill="#000000" stroke="none">
<path d="M902 1483 c25 -29 29 -58 13 -96 -22 -53 -18 -80 5 -35 11 20 33 46
50 58 16 12 30 26 30 31 0 23 -50 59 -81 59 -30 0 -31 -1 -17 -17z"/>
<path d="M1031 1445 c-7 -20 -26 -43 -46 -55 -35 -22 -60 -74 -49 -103 8 -22
0 -21 -71 3 -100 34 -213 46 -312 31 -115 -16 -175 -45 -261 -123 -53 -49 -82
-68 -119 -77 -82 -22 -103 -33 -118 -62 -22 -42 -18 -71 14 -104 87 -89 101
-105 101 -121 0 -16 1 -16 20 1 20 18 20 17 20 -16 l0 -34 25 31 c20 26 34 33
78 38 124 16 264 -34 360 -128 58 -58 111 -153 123 -221 7 -39 6 -40 -13 -23
-31 28 -55 21 -88 -25 l-30 -42 -3 34 -3 33 -21 -41 c-17 -34 -25 -41 -50 -41
-38 0 -93 52 -83 78 20 46 18 61 -9 68 -14 3 -37 3 -51 0 -31 -8 -65 -60 -65
-99 0 -35 25 -95 51 -123 l20 -21 -23 -7 c-19 -5 -20 -8 -8 -16 37 -24 127
-42 191 -38 150 11 268 105 317 254 l20 59 7 -46 c15 -99 -32 -224 -115 -306
-44 -44 -45 -45 -15 -37 17 4 56 15 88 24 31 10 57 14 57 10 0 -14 -139 -139
-177 -159 -85 -45 66 -12 170 37 81 38 168 110 223 185 24 32 44 54 44 48 0
-24 -43 -138 -67 -180 l-26 -45 46 38 c87 71 163 191 192 302 8 32 17 59 19
61 4 4 12 -51 18 -132 3 -30 3 -29 31 20 57 100 80 189 80 310 0 166 -47 308
-150 453 l-47 66 -14 -53 c-19 -67 -84 -141 -149 -169 -48 -20 -78 -25 -140
-23 -37 1 -46 21 -10 21 25 0 114 49 139 76 31 36 59 103 65 156 10 99 -50
203 -145 252 -28 15 -29 14 -41 -19z"/>
</g>
</svg>
