<?xml version="1.0" standalone="no"?>
<!DOCTYPE svg PUBLIC "-//W3C//DTD SVG 20010904//EN"
 "http://www.w3.org/TR/2001/REC-SVG-20010904/DTD/svg10.dtd">
<svg version="1.0" xmlns="http://www.w3.org/2000/svg"
 width="221.000000pt" height="228.000000pt" viewBox="0 0 221.000000 228.000000"
 preserveAspectRatio="xMidYMid meet">

<g transform="translate(0.000000,228.000000) scale(0.100000,-0.100000)"
fill="#000000" stroke="none">
<path d="M938 1783 l-38 -15 0 -67 c-1 -59 -3 -68 -25 -84 -24 -17 -27 -17
-88 1 l-63 19 -28 -39 -28 -39 39 -52 c35 -47 38 -55 30 -84 -9 -28 -18 -35
-73 -53 -57 -19 -64 -24 -64 -48 0 -60 9 -71 71 -88 51 -14 60 -20 69 -49 10
-31 8 -38 -24 -83 -20 -27 -36 -54 -36 -59 0 -5 12 -23 28 -41 l27 -33 60 20
c56 18 61 19 87 3 26 -15 28 -20 28 -84 0 -37 1 -68 3 -68 1 0 23 -7 48 -14
l47 -14 37 54 c33 47 42 54 71 54 29 0 39 -7 71 -50 40 -53 44 -54 108 -30 23
9 25 14 25 77 1 60 3 70 25 85 23 17 26 17 86 -2 35 -10 64 -18 64 -17 1 1 14
19 29 39 l28 37 -40 52 c-36 48 -39 54 -29 85 9 29 18 36 66 52 l56 19 0 48 0
48 -60 21 c-50 18 -61 26 -68 52 -8 27 -4 38 28 82 l37 52 -28 38 -28 39 -62
-20 -61 -20 -32 22 c-29 21 -31 26 -31 85 l0 63 -40 12 c-48 14 -51 13 -90
-45 -27 -39 -35 -44 -68 -44 -33 0 -41 6 -72 50 -19 27 -39 49 -45 49 -5 0
-27 -7 -47 -16z m206 -268 c20 -14 49 -25 64 -25 35 0 93 -35 99 -60 3 -11 20
-29 38 -40 34 -21 65 -73 65 -110 0 -49 -49 -107 -98 -116 -21 -4 -50 -22 -72
-44 -58 -58 -136 -65 -195 -19 -16 13 -43 22 -70 23 -51 2 -88 26 -123 77 -20
28 -23 44 -20 92 4 46 10 63 33 87 16 16 36 32 46 35 9 3 22 18 29 34 12 30
55 75 80 84 37 13 89 6 124 -18z"/>
<path d="M1017 1470 c-15 -12 -29 -36 -33 -55 -4 -25 -12 -35 -25 -35 -58 0
-100 -102 -65 -156 25 -36 80 -58 117 -45 26 9 31 7 45 -14 9 -14 33 -30 53
-36 50 -15 95 7 112 56 12 33 15 34 50 29 29 -5 41 -2 58 15 43 43 17 121 -41
121 -11 0 -18 8 -18 20 0 12 -12 32 -26 46 -24 25 -35 26 -76 9 -11 -4 -18 0
-23 14 -7 23 -53 51 -83 51 -11 0 -31 -9 -45 -20z"/>
<path d="M500 570 c0 -71 3 -90 14 -90 9 0 16 12 18 27 4 39 32 41 54 4 12
-21 26 -31 42 -31 l23 0 -20 28 c-18 26 -19 30 -4 45 22 22 21 76 -2 93 -10 8
-43 14 -72 14 l-53 0 0 -90z m105 30 c0 -22 -5 -25 -37 -28 -34 -3 -38 -1 -38
21 0 32 9 39 45 35 25 -2 30 -7 30 -28z"/>
<path d="M700 570 l0 -90 65 0 c51 0 65 3 65 15 0 11 -12 15 -50 15 -43 0 -50
3 -50 20 0 17 7 20 45 20 33 0 45 4 45 15 0 11 -12 15 -45 15 -41 0 -45 2 -45
25 0 23 3 25 50 25 38 0 50 4 50 15 0 12 -14 15 -65 15 l-65 0 0 -90z"/>
<path d="M886 644 c-33 -33 -17 -68 39 -87 48 -17 60 -47 20 -47 -14 0 -35 4
-45 10 -21 11 -50 -13 -30 -25 49 -30 124 -21 133 17 9 32 -8 54 -53 72 -55
22 -56 51 0 43 41 -5 63 8 39 24 -23 14 -86 10 -103 -7z"/>
<path d="M1030 645 c0 -10 10 -15 30 -15 l30 0 0 -75 c0 -60 3 -75 15 -75 12
0 15 15 15 75 l0 75 30 0 c20 0 30 5 30 15 0 12 -15 15 -75 15 -60 0 -75 -3
-75 -15z"/>
<path d="M1309 578 c-19 -45 -35 -85 -37 -90 -2 -4 5 -8 16 -8 12 0 23 9 27
20 5 16 15 20 50 20 35 0 45 -4 50 -20 3 -11 15 -20 25 -20 19 0 19 1 0 45
-11 25 -29 65 -40 90 -30 69 -49 61 -91 -37z m59 -26 c-28 -5 -31 1 -16 33
l12 28 12 -29 c11 -26 10 -29 -8 -32z"/>
<path d="M1490 570 c0 -83 1 -90 20 -90 15 0 20 7 20 25 0 22 4 25 33 25 41 0
64 17 72 52 11 44 -31 78 -95 78 l-50 0 0 -90z m100 45 c20 -24 3 -55 -31 -55
-27 0 -29 3 -29 35 0 30 3 35 24 35 13 0 29 -7 36 -15z"/>
<path d="M1670 570 c0 -83 1 -90 20 -90 19 0 20 7 20 90 0 83 -1 90 -20 90
-19 0 -20 -7 -20 -90z"/>
</g>
</svg>
